<?xml version="1.0" encoding="UTF-8" standalone="no"?>
<svg xmlns:xlink="http://www.w3.org/1999/xlink" xmlns="http://www.w3.org/2000/svg" xmlns:svg="http://www.w3.org/2000/svg" viewBox="0 0 297 420" version="1.1" style="height:420mm;width:297mm;stroke:#000;fill:none;stroke-width:.5">
	<path d="
		M43.5  20v31.5
		M253.5 20v31.5
		M20  61.5h13.5
		M277 61.5h-13.5

		M43.5  400v-31.5
		M253.5 400v-31.5
		M20  358.5h13.5
		M277 358.5h-13.5
	" />
	<g transform="translate(43.5,61.5)">
        <g transform="rotate(-45 151 52)">
            <g id="c">
                <path id="b" d="M0 0h162l-4-14-53-53H57L4-14z" />
                <path id="a" d="M0 0v114l-12-2-55-55 55-55z" />
                <use width="100%" height="100%" transform="matrix(-1 0 0 1 162 0)" xlink:href="#a" />
                <use width="100%" height="100%" transform="matrix(1 0 0 -1 0 114)" xlink:href="#b" />
                <path stroke="#fff" stroke-dasharray="3 3" stroke-width="1" d="M0 0h162v114H0z" />
            </g>
            <g transform="translate(-1 -3)">
                <path fill="#fff" stroke="none" d="M82-30l62 62-62 61-61-61z" />
                <use width="100%" height="100%" transform="matrix(.41 0 0 .41 49 8)" xlink:href="#c" />
            </g>
        </g>
        <g stroke="none">
            <path fill="#fff" d="M129 3h78v78h-78z" />
            <path fill="#000" d="M130 3v6h6V3h-5zm7 0v1h-1v1h1-1v1h2v1h1V5h-1 1V3h-1zm2 2v1h1V5h-1zm-1 2h-2v2h1V8h1zm0 1v1h1V8zm3-5v1h1v1h1V3h-1zm2 1h1V3h-1zm1 0v1h3v1-2h1V3h-1v1h-1V3h-1v1zm4 0v1h1V4zm1 1h2V4h-1v1zm2-1v3-1h-2v1h1v1h1v1-1h1v1h-1 2V8h1v1h1v1h-1v2h4v-1 1h1v-1h1v-1h-1V9h1-1V7h1V5h-1V4h1V3h-2v1-1h-1v1h-1v1h2v1h-2V5h-1v4h-1V7h-2V6h1V5h2-1V3h-1v1h-1V3h-1zm5 0V3h-1v1zm4 0v1h3v1h-1v1h1v2h1V7h2V6h-2V5h-1V4h1v1h1V3h-3v2h-1V4zm5 1h1zm1 0v1-1zm0 0h1v1h1v1h1v1-2h1V5h-2 2V4h-1V3h-1v1h-2v1zm4 0h3V4h1V3h-3v2zm3 0v1h-1v1h2V5zm-3 1v2h1V6zm1 2v1h-1 3v1h1V9h-1V8v1h-1V8zm3 1h1V8h-1zm1 0h2V8v3h-4v1h2v1h1v-1h2v-1h-1v-1h2v1h1v1h1V9h1-1V8h1v1h1V8h1V6h-1v1h-2V6h2V5h-4v1h-1V5h-2v1h1v1h-1v2zm8-4h1V4h2V3h-4v1h1zm1 0h3v1h1V5h-3zm0 3v2h1V8zm1 2v1-1zm0 1v2h-2v2h1v1h1-1v1h1v5h1v-2h1v1h2v1h-1v1h3v-1h1v1-1h1v-1h1v-1h-2v1h-1v-1h1v-3h-1v1h-1v-1h1v-1h1v1-1h-1v-1h1v-1h-2v2h-2 1v1h-1v-1h-3 2v-1h-1v-1h1v1h1v-2h4v1-3h-2v1h-1v-1h1V9h-1v1h-1v2h-1v1h-2v-1h3v-2h-1v1h-1zm5-2h2v1-2 1h-1V8h-1v1zm1-1h1V7h-1zm0-1V6h-1V5h-1v2h1zm-2 0h-1v2h1V8zm-1 2zm0 0V7h-1v2zm2-4h1v1h1V4h-1v1h-1zm2 0h1v2h1v1h1v1h1V8v1h1V8h1V7h-2V6v1h-1V6h-1V4h-1v1zm2-1h1v1h3V4h-1V3h-1v1-1h-2zm2 2h1V5h-1zm2 2v1h-2v1h-1V9h-1V8h-1v2h1v1h-2v1h4v-1h1v-1h2V9h1-1V8zm1 0h1V7h-1zm1-1V3h-1v1h1v1h-1 1v1zm0 1v1-1zm0 1v1h-1v1h1v1h-1 1v3h-1v-1h-3v-1h-1v-1h-1v1h-1v1h-1v2h2v1h1v1h3v1h2v-4h1v1h2v-1h-1v-1h1v-1h-2v-1h2-1v-1h-2v-1h1V9h-1zm0 7v2h2v-2h-1zm2 2v1h1v-1zm1 1v1h-7v-1h-1v-1h-2v1h1v1h1v1h2v2h1v-2h1v1h1v-1 2h1v1h-1v-1h-1v1h-1 1v3h1v-3h1v1h2v-1h-1v-1h1v-2h1v-1h1v-1h-2zm2 0h1v-1h1v-1h-2v1zm1 0v1h-1v1h2v-2zm-3 6v1-1zm0 0h1v-1h-1zm1 0v2h1v-2zm1 2h1v1h-2v1h-1v-2h-1v1h-1v-1h1-2v1-1h-2v1h-1v1h1v1h-1v-1h-1v1-3h1v-1h-1v1h-1v-1h1v-3h-1v-1h-2v2h2-2v2h1v1h-2 1v2h-1v1h1v1h7-2v1h1v1h-1v1h2v-2h1v1h1v-1h1v3-1h1v-1h-1v-2h1-1v-1h2v1h2v-4h-1zm-1 4v1h1v-1zm-1 4h-2v1h-1v-1h-2v3h-2v1-1h-2v1h-2v-1 3h-1v-1h1v-1h-2v-1h-2v1h1-1v1h2v1h-2v1h2v2h-2v2h2-1v-1h1v1h1v-3h1v-1h-1 1v-1h2v-1h-1v-1h3v1h-1v1h-1v1h2v-3h3v-2h1v3h1v1h1v-2h1-2v-1h2v-1h-1v-1h1v1h1v-1h1v-1h-2zm2 1v3h1-2v1h3v-2h-1v-1h1v-2h-1v1zm-1 3v-1h-1v1zm-2 2v1h-1v-1h-1v1h3v-1zm1 1v1-1zm0 0h1v-1h-1v1zm-3 0v1zm0 1v3h-1v-1h-1v1h-1v-1h1v-1h-1v-1h-1v-1h1-1v1h-3v1h3v2h1v1h2v-1h1v1h2v-1h-1v-2h1v-1h-1zm2 1v1h1v-1zm0 3v2h1v-2zm1 0v-1zm0-1h1-1zm0 1v1h1v-1zm0 2v1h-1v-1h-2v-1h-1v1h-1v1h-2v2h1v-1h1v-1h3-1v3h-1v-1h-1v2h2v1h-1v-1h-1v2h-1v2h1-2v1h1v2h1v-2h1v1h1v-1h3v-1h-4 1v-1h-1v-1h1v1h1v-3h3v-4h-1v-1zm1 5h-1v3h-2v1h4v1h2v-1h-1 1v-1h-3v-2h1v1h2v-1h-1v-1h-1zm1 0h1v-1h1v-2h-1v1h-1v1zm1-3v-1h1v-1h-2v2zm0 3h1zm-10 4h-1v-1h-1v-2h-2v1h1v2h-1v1-1h-1v-1h1v1-3h-2v-1h-1v2h1v1h-1v-1h-1v2h1-4v1h1v1h1v-1h1v2h1-1v1h1v1h-1v2h-2v-1h-1v-2h-1v2h1v1h-4v-1h-1v1h-1v1h1v1h-1v1h1v1h-6 1v1h1v-1h1v1h1v1h1v-2h2v1h1v-1h-1 2v-1h1v1h1v-1h1v-2h-1v-1h1v1h1v2h-1v1h2v-4h1v-1h1v1h1v-4h-1v-1h1v1h2-1v-1h1v-1h1v-1h2zm-8 8v2h1v1h1v-1h1v-1h-1v-1h-1zm3 2v1h1v-1zm0 1h-3v4h1v-1h2v-1h-2v-1h2v-1zm0 3v1h-2 3v1-1h2v-1h-1v-1h-1v1zm3 0h2v-2h-2v1zm0 1v1h2v-1h-1zm2 1v1h-3v1h2-1v2h2v-3h3v-1h-3zm3 1v1h1v1h2v1h-1v1h-1v1h2v-1h1v1h1v-1h-1v-3h1v-1h1v1h2v-2h-2v-1h-1v1h-1v-1h1-1v-1 1h-1v-1h1v-2h-1v-1h1-3v-5h-2v1h-2v1h1v-1h2v1h-2v1h2v1h-2v1h2-1v2h-1v1h3v1h-1 1v2zm-2-6h-1 1zm-1 0v-2h-2v1h1v1zm-1 0h-3 3zm-1-2v-2h-1v-1h-1v2h1v1zm-1 0h-1v1h1zm3-2v-1h-1v-1h1v-2 1h-4v1h2v2h1zm0-4v-2h-1v2zm-1 0h-1 1zm1 2v1h2v-1h-1zm4 1h2v-2h-1v1h-1zm2-2h1v-1h-1zm0 2v1h1v-1zm1 0v-1zm0 0v2h1v-1h1-1v-1zm1 0h1v1h1v-1h1v-3h-2v-1h-1v1h-1v1h2v1h-1zm-1-3v-1h-3v1h3zm-3 0h-3v1h2v1h1v-2zm6 4h1zm-2 1v1h1v-1zm1 1v2h2v-1h-1v-1zm1 0h1v-1h-1zm-3-1v1zm0 1h-1v-2h-1v1h-1v1h1v1h2zm0 1v1h1v-1h-1zm0 4h1v-1h1v-2h-2v2zm2-1v1h1v1h1v-3h-1v1zm0 5h-2v1h2v-1zm-5 3v-2h-1v-1h-1v1h-1v1h2v1h1zm-1 0h-2v1h2zm-1-3h-1zm-4 2h-1v2h2v-1h-1zm-1 0v-1h-1v1zm-1-1v-1 1zm0-3h-3v1h3zm-3 1h-1v1h1zm0 1v1h1v-1h1-1zm1 1v1h1v-1zm1 1v1h-2v1h3v-2zm-2-1h-1v1h1zm-1-2v-1 1zm0-2zm-2-4h-1 1zm-1 0h-1v1h1v2h-2v1h2v2h2v-2h-2v-1h1v-1h1v-1h-2zm-1 1h-1v1h1zm0-1h-1zm-3 1h-1v1h1zm0 1v2h1v-2h-1zm0 2v-1h-3v-1h-1v3h-1v1h-1v-1h-1v2h4v1h-1v3h4v-3h-1v2h-2v-1h1v-2h2v1-1h1v-1h-1v-2zm1 3h1zm-7 0h-3v2h1v2-1h2v1h2v-3h-2zm-3 2h-2v1h2zm-2 1h-4v1h4zm-4 0v-2h-1v-1h3v-1h1v-2h1-1v-3h1v-1h-2v1h-1v1h1v2h-1v-1h-1v-1h-1v1h1v1h2v1h-1v1h-2v-1h-1v-1h-2v1h1v2h1-1v1h1v1h2v1zm-3-2h-1v1-1h-1v2h1v1h3v-1h-2v-1zm-2 2h-1v-1h-1v-2h3-1v-1h-1v1h-1v-2h1v-1h-1v-1h-5v-2h-1v1h-1v1h2v1h1v2h-1v1h3v1h1v-1 4h3zm-8-9v-1h-2v1h1zm-2 0h-3v1h-1v2h2v1h1v-1h-1v-2h1v1h1v2h1v1h1v-2h-2v-2zm-4 3h-1 1zm-1 0v-2h-3v1h2v1zm-1 0h-1v1h-1v1h1v1h1v-1h2v1h3v-1h-2v-1h-3v-1zm2 3h-1 1zm0 0v2h-1v-1h-1v-1h-2v1h-1v-1h1-3v-1h-1v1h1v1h1v1h1v1h1v1h1v-1h1v1h1v-1h1v1h1v-1h-1v-1h2v1h1v-1h1v-1h-3v-1zm4 1v1h1v-1h2v-1h-3zm0 1v2-1zm-9 1h-1v1h1zm-1 0v-1h-2v2h1v-1zm-2 0v-3 1h-1v2zm-1 0h-1v-2h1v-1h1-1v-1h-1v1h-1v4h2zm-1-4v-2h-2 1v2zm-2-2v-1h-1v1zm-1 0h-2v-1 1h-1v-1h-1v1h4zm1-1h2v-3h-3v-1h-1v2h1v1h1v-1h1v1h-1zm-2-2h-1v-4h2v1h2v2h3v1h-1v1h2v2h2v-1h-1v-3h-1v-1h1v-1h1v-1h1v-1h2v-2h-1v1h-1v1h-1v-1h-2v1h1v1h-1v-1h-1v-1h1v-1h1v-1h1v-1h-3v2h-1v-1h-1v-1h-1v2h-1v1h1v1-1h2v1h-2v1h-1v-1h-4v-1h-1v3h1v2h1-2v2h1v-1h1v1h1zm2-5h1-1zm1-4zm0 0h-1v1h1zm0 0v-1h-1v1zm0-1h1v-1h-1v-1h-1v1h1zm0-2v-1h-2v1h1zm-2-1v-1h-1v1zm-1 0h-2v-1h-1v2h2v1h1v-1zm0 2v1h1v-1zm-2-3h1v-2h-2v1h1zm0-2h2v1h1v1h2v2h3v2h-2v1h2v-5 2h1v1h1v-1h1v-2h1v-1h1v1h-1v1h2v-1h1v-2h-2v-2h1v-1h-2v2h-2v1h1-2v1h-1v-1h-2v1h1v2h-1v-2h-1v-1h2v-2h-1v-1h1v1h1v-3h-1v1h-1v-1h-1v-1h2v-1h-1v-1h-1v1h-1v1h1v1h-1v1h1-3v2h-1v1-2h-2v1h1v1zm2-4h-1zm2-1v-1h-1v-2h-1v3h1zm-2-3h-1v-1h2v-1h-1v-1h1v-1h-1v-1h1v-1h2v1h-1v1h1v-3h1v-1h-1v1h-1 1v-1h-2v1h-1v1h-1v3h-1v-2h-1v2h1v1h-1v3h1v2h1v-3h-1v-1h1v1zm-2 3h-1v1h1zm1-9v-3h1v-2h-1v2h-1v1h-1v1h1-1v1h2zm1-3v1h1v-1zm-1 2h1zm4 3v1h-2v1h1v-1h1v2h3v-4 2h1v-1h2v-2h1v-1h-4v1h-2v1h1v1h-1zm7-2v1-1zm-1 2v1h1-4v1h3v2h2v1h-1v3h1v-1h2v-1h-1v-1h1v-1h-1 3v-1h-1v-1h2v-1h-1v-1h-1v-1h1v1h1v-1h1v-2h1v-2h1v-1h1v-1h-1v-1h-1v-1 3-1h-1v3h-2v1h1-1v1h-1v-1h1-4v3h-1zm6-4v-1h-1v1zm3-5v-1h-1v1zm-1 0h-1v2h1v-1zm-1 2h-1 1zm-1 0h-1v-2h1v-1h1v-1h-2v-1h1v-1h1v-1h-2v-1h-3v1h3v1h-2v1h-2v1h4v1h-1v1h1v2h-1v1h2zm-2 0v-1h-2v-1h-1v-1h-2v3h1v-1h1v1h2zm-2 0h-1v1h1zm0 1v1h1v-1zm-2-1h1zm1-3h1v-1h-1zm0-2v-4 1h1v-1h1v-1h-2v-1h-1v2h-2v1h1v1h-1v1h3v1zm-3-4v-1h-1v1zm0-1h1v-1h1v-2h-1v2h-1zm0-1v-2h-1v1-1h-2v1h1v1h1zm-3-2v-1h-1v-1h-2v1h-1v1h2v-1h1v1h-1v1h1v-1zm-4 0h-1v2h-1v1h1v2h1v-1h-1v-1h1v-1h3-2v-1h-1zm0 3v1h3v-1h-2zm3 1v1h1v-1h-1zm1 1h-1v1h-1v-1h1-3v3h-2v-1h-1v2h2v1h-2v1h2v1-2h1v1h1v-1h2v1-1h2v-1h-1 1v-1h-1v-2h1v1h1v-2h-1zm1 0h1v-3h-1v2zm0 4h1v1h-1v1h1v-1h1v-1h-1 4-2v-1h-2v1zm-2 2v2h3v-1h-2v-1zm3 2h-1v1h1v1h1v-1h1v-1h-2zm0 0h1v-1h-1zm0 2h-1v2h1v-1zm-1 0v-1h-2v1h1zm-2-1v-1 1zm0 0h-1v1h1zm0-1h-1zm-1 0v-1h1v-1h-2v2zm-4-6h1v-2h-1v1zm0-4h-1v1h1zm2-4v-1h1-2v1zm-1-1v-1h3v-1h-1v-1h1v-1h-1v-3h-1v-1h-1v2h1v2h-1v-1 1h1v2h-2v3h1v-1zm0-4h-2v1h2zm0-1v-3h-1v-1h-1v2h1v2zm1-3h1v1h2v1h-1v1h1v1h-1 1v1h2v1h-1v1h-2v1h2v1h3v-1h1-1v-1h-1v-3h-1v-1h-1v1h-1v-1h1v-1h2v-1h-1v-1h-2 1v-1h2v-1h-1V9h-3v1h1v1h-1v1h1-2v-1h-1v-1h1V9h-4v1h2v2h1zm1-2v1h1v-1zm5 0V9zm0 1v1h1v-1h-1zm1 0h3v1h-1v3h1v-2 1h1v-2h1v1h2v1-1h2v-1h-2 3v-1h-2v-1h2V9h-3V8h-1v1h-1V8h-1v1h-1V8v1h-2v1h-1zm3-3V5h-2v2h1v1zm-1 0h-1v1h1zm-1 0V7h-2v2h1V8zm2-3h1-1zm1 0v1h1V5zm1 1v2h1V6zm5 3h1-1zm0 0V8h-1v1zm0 1v1h1v-1zm1 1v1-1zm0 0h1v-1h-1zm0 1h1zm1 0v1h-1v1h1v1h2v-1h-1v-2zm2 2h1v1h3v-1 1h4v1-2h-3v-1h2v-1h-3v1h-2v-1h-1v1h-1zm7-2h1v-1h-2v1h1zm1 2h1v1h2v-3h1v1h1v1h-1v1h1v1h1v-2h2v-2h-3v-1h-1v1-2h-1v2h-1v1h-1v-1h-1v1zm1-2h1v-2h1V9h-3v2h1zm-1-3V8v1zm0 0h-1 1zm-1 0V7h-1v2zm0-2h1V6h-1zm6 4h2v1h1v-2h-1V9h-3v1h1zm3 1h2v3h-1v1h2-1v1h-2v2h2v-1h1v2-1h-1v1h2v-2h1v2h1v-1h1v1h1v-2h1v-1h-2v-1 2h-1v-1h-3v-1h1v-4h-1v1-2h-1v1h-1v-1h1v-1h-2v2zm3-1v-1zm4 5h2v1h1v2h-1v1h1v1h1v-8h-2v2h-1v-1h-3v2h1zm4 4v1h1v-1zm1 0h1v-2h-1v2zm1-2h1v-1h-1zm0-1v-1h-1v1zm1 1v1h1v-1zm-2 3v2h1v-2zm-2 0h-1v2h-1v-1h-1v2h-3 1v-1h-1v-1h-1v1h-2v1h-1 1v1h1v-1h1v2h-2v1h3v-2h3v-1h3v3h-1v-1h-1v-1h-1v5h-3v1h1v1h1v-1h1v1h2v1h-1v1h3v-1h-1v-1h1v1-1h1v1h1v-2h-2 4v2-3h-4v-1h2v-1h-2v-1h2v-1h-1v1h-1v-5 1h-1v-1zm1 3h1zm4 6v-2h1v-1h-1v-3h-2v1h1v2h1-1v1h1v1zm1-3h2v-1h-2zm2-1v-2 1zm0-2v-2h-1v2h-1v-1h-1v-2h-1v2h1v1h2zm0 0h1-1zm1 0v2h2v-1h1v2-3h-2zm3 0h1-1zm-7 6v1h1v-1zm1 1h1v1h-1v1h-1v1h1v1h5v-2h-1v1h-1v-1h-1v1h-1v-1h1v-2h-1zm2 0h1v2h1v-1h1v-1h1v2-2h-2v-1h-2zm2-1h1v-2h1v1-2h-3v1h-1v1h2zm-1-3h-1zm2 8h1v1-1h2v-1h-2v1zm3-1h1v1h1v-4h-1v1h-2v1h1zm2 0h1v-1h-1zm1 0v1h1v-1zm-2 1h-1v2h3v-1h-1v-1 1h-1v-1zm-1 2h-1v1h1zm-16-3h-1v1h1zm-1 1v-2h-1v1h-1v2h1v-1h1zm-1 1v1h3v1h1v-1h1v2h-1v1h-1v1h3v2h1v-2h1v-2h-1v1h-2v-1h2v-2h-1v1h-1v-3h-2v1h-2zm5-1h1v1h1v-1h-1v-1h-1v1zm2 1v1h1v-1zm1 0h1v1h-1v1h1v3-1h1v-2h1v-1h-1v-1h1v-1h-2v-1h-1v1zm3 0v1h1v-1zm0 2v2h1v-2zm0 2h-1v1h1zm-8 1h-2v1h2zm0 1v1h2v-1 1h-1v-1zm0 1h-1v1h1zm0 1v2h-2v1h1v1h1v-2h1v1h1v2h-1v-1h-1v2h-2v-1h-1v1h-3 4v4h-1 2v1h1v-1h2v-1h1v-1h-1v-5h1v-1h-1v-2h-1zm3 3v1h1v-1zm1 0h1v-1h-1zm1-1h3-1v-1h-2v1zm0 1v1h1v-1zm1 1v1h-1v-1h-1v2h-1v2h2v1h-2v2h-2v1h-1v1h1v1h4-1v-1h-1v-1h1v-2h3v-1h1v-1h1v-2h-1v1h-1v1h-1v1-2h-2v-1h4v-1h-2v-1zm2 1h1v-1h-1zm1-1v-1zm0 0v2h2v-2h1v-1h1v-1h-2v1h-1v1zm4-2v1h1v1h1v2h-2 1v1h1v1h1v1h1v1h1v-1h-1v-4h-1v-2h-1v-1h-1zm3 1h1v-1h-1zm1 2h1v-1h-1zm0 5h-1v-1h-2v1h1v1h1v1h1v-2zm0 2v1-1zm-3-3v-1h-1v1zm-1 0h-1v-1h-1v2h2zm-2-1v-2h-1v1h-1v3h1v-2zm-2 2zm4-4v1zm0 0h-1zm1-2h-1v-1 2h1zm-10 8v1h2v-1h1v1h1v-1h1v-1h-3v-1 1h-1v1zm-1 2h-1v2h1v-1zm-1 1h-1v-1h-1v2h1v1h1v-1zm0 2h-4v2h1v2h1v-2h2v-1h1v-1h-1zm1 1v2h1v-2zm-5 1h-1v1h1zm0 1v1h-2v-1h-1v1h-1v2h-1v1h1v1h1v-3h1v-1h2v-1zm0 1v1h1v-1zm0 1v1zm0 1v1h1v-1zm-2-1v1h1v-1zm-2-1v-1h1v-1h1v-1h-1v-1h-1 1v-1h-1v-1h1v-1h1-2v-3h-1v1h-1v-1h-2v-1h-1v1h-2v1-1h-1v-1h1v-1h-1v-1h1v-2 1h-1v-1h-1v-1h1v-2h1v1h1v1h-2v1h2v1h2l1-1h-2v-1h1v1-4h-1v1h-2v-1h-2v-1h-2v1h2v1h-1v-1h-1v4-1h1v2h-1v1h1v2h1-2v1h2v1h-2v2h2-1v-1h4v-1h2v1h3v1h-3v3h1v-1h1v-1h2v1h-1v1h-3v-1h-1v-2h1l1-1h-3v4h2v2h-1v-1h-1v1h-1v1h1v1h3v-3 1h1v-1h1v-1h1v2h-1v2h1zm-1 0h-3v2h1v-1h2v-1zm-3 2v-1h-1v2h1v1h1v-1h-1zm1 2h2-1zm-2-3v-1h-1v1zm-1 0h-1v1h1zm-3-8v2h-2v2-1h-1v2h2v1h-1v1h-1v1h2v-1h2v-2h-1v-1h-1v-1h2v-2h1v1-2h-1zm1 7h1zm-3-5v-2h-4v1h-1v1h-1v1h2v1h-2v-1h-2v2-1h1v1h2v1h1v-1 4h1v-1h1v-1h-1 1v-1h-1v-2h1v-1h-1v-1h2v-1h1v1zm-3 7v1h-1v2-1h-2v2h4v-1h-1v-1h1v-2zm1 2v1h1v-1zm0 2v1h1v1h1v-2h-1zm2 0h3v-2h-1v1h-1v-1h-1v1zm0-2v-1h1v1h2v-1h-1v-1h-3v1h1v1zm2-2h1v-1h-1zm-3 6h-1 1zm-5-4v-2h2v-1h-2v-1h-2v2-1h1v1h-1v1-1h-1v2h2zm-3-2v-2h-1v2zm-1 0h-1v2h1v-1zm-1 2h-2v-1h-2v1h4zm-4 0h-4 2v1h2v-1zm0-1v-2h1v-1h-1v-2 2h-1v2h1v1zm-1-3h-1zm-1 0h-1v1h1zm-1 1h-1v1h1zm4 0v1h1v-1zm1 0h2v-1h-1v-1h-1v1zm2-1h1v-1h1v-1h-2v1zm2 0h1-1zm1 0v-1zm4 2v1-1zm-1-3h-2v1h2zm-3-3h-1zm-1 0v-2h-1v2zm-1 0h-1 1zm1-2h1v2-2h1v1h1v-2h-3zm1-1v-1h1v-1h-1v-1 1h-1v-1h1v-1h-3v-1h1v-1h1v-2h-2v3h-2v1h2v1h1v2h-1v1h-2 1v1h1v-1h2v-1h1v1zm-3-3h-4v2h1v-1h3zm-4 0v-1h1-1v-1h2v-1h-1v-1h-1v-1h-3 1v1h2v2h-1v1h1v1zm-1-2v-1h-1v1zm5-3h-1v-1h1v1h1v-1h2v-1h1v-1h2v-1h-2v-1h-1v3h-1v-1h-1v-1h1v-1h-1v-1h2v-1h-2v-1h-1v-1h1v-1h2v1-1h1v-1h-4v3h-2v1h2-1v1h1v4h-2v1h-1v1h2zm-3-1v-1h1v-1h-2v2zm1-2h2v-1h-2zm1-3h-1v1h1zm3-5h1v-2 1h1v-3h2v-2h-2v1h1v1h-2v1h-1v1h-1v1h1zm2-6v-1h3v3-1h1v1h-1v5h-1v1h2v-1h1v2h1v-1h1v-1h1v1h1v-1h1v-1h-1 1v-1h-2v-1h1v-1h2v-1h-4v4h-4 1v-3h1v-1h2v-1h1v-1h-1v-1h-1v1h-2v-3h1v-1h-1v-1h-4v3h-1v1h-1v-1h-2v2h2v1h1v-1zm-4-2zm0 0h3v-1h-2v-1h1v-2h-1v-1h-1v3h-1v1h1zm-1-1h-1v1h1zm1-3v-1h-1v-1h-2v-1h2-2v-1h-1v-2h1v2h2v-2h-1v-1h1-3v-2 1h-1v2h-1v1h1v2h-1v1h2v1h-2v1h4-1v-1h1v1h1zm-6-3v-2h-1v2zm-1 0h-1 1zm-1 0v-2 2zm0-2v-1h-1v1zm0-1v-1zm0-1v-1h-1v-2h-2v1h1v2h1zm-1-3h1v-1h-1zm1-1zm0 0h2-1v2h1v1h1v-1h1v-1h1v-1h2-3v-1 1h-1v-2h-1v1h-2zm4-1h3v-2h-1v1h-2zm3 0v1h1v1h1v-1h1-1v-1h-1v-1 1zm1 2v1zm0 1v2h2v-1h-1v-1zm2 1h1v1h1v-1h-1v-1h1v1h2v1h1-3v1h3v2h-1v1h-2 1v1h1v-1h3v-1h-1v-1h1v-1h-1v-1h1-1v-2h-1v1-3h-1v2h-1v-1h-1v-1h-1v2h-1zm5-3v-1 1zm0 0v1h2v-1h1v2h-1v1h2v-2h2v-1h1-6zm7 0h2-1v-1h-1zm2 0v1h1v-1zm1 0h1-1zm1 0v-1zm0 0h1zm0 0v1h-1v1h1v1h-3v1h4v-1h-1v-2zm-3 3v-3h-1v3h1zm-1 0h-2v1h-3v1h1v1h2v-1h-1v-1h1v1h1v-1h1zm0 1h1zm1 0v2h1v2h1v-1h1v1h-1 1v-1h1v-2h-1v1h-1v-1h-2v-1zm4 1h2v-1h-2zm-1 3v1h1v-1zm1 1v1h1v-1zm-1 0h-2v-1h-2 1v3-1h2v1h-3v-2h-1v1h-1v-1h-1v1h-1v1h-1v2h1v-1h1v-1 1h5v-1h2v-1zm0 2v1-1zm0 1v1h1v-1zm1 0h2v-1h-2zm0 1v1h1v-1zm-1 0v1zm0 1h-1v1h-1v-1h-1v2h1v1h2v1h3v-1h1v-1h-2v-1h-1v2h-1l1-1h-1v-1zm2 1h1-1zm1 0h1v-1h1v-2h-1v1h-1v1zm2-3h1v-1h-1zm1-1h1-1zm-2 4v1h1v-1zm1 1v1h1v-1zm0 1h-1v1h1zm-1 1v1h-1v1h1v-1h1-1zm0 2v1h1v1h1v-2h-1zm2 2v1h1v-1zm-1 0h-1v-1 1h-1v1h2zm-1 1h-1v4h-3v-1 1-2h-2v2h1v1h-1v2h2v-2h2v-1h1v3h-2v1h3v1h-3v2h-1 3-1v-1h1v1h1v-1h3v-1h1v-1h-1v-1h-1v2h-1v-1h-1v-1h2v-1h-1v-1h-1v1-3 1-1h1v-1h-1v-1zm1 3v2h1v-1h1v-1l-1 1v-1zm1 2v1h1v-1zm-8 2h-1 1zm0-4l-2 1h1v1-1h1zm5-6h-1v-1h-1v2h-1l1 1h1v-1h1zm-3 2v-1h-1v1h-1v1h1-2v1h3v-1zm1-3h-1v-1h-1v1h-2 2v1h1v-1zm-3-2h-1v1h1zm-1 0v-1h-1v1zm-1-1v-1h-3v1h1v1h1v-1zm-3-1h-1 1zm-1 0h-1v1h1zm4 0h1v-1h-1v1zm0-1v-1h-4v1h3zm1 0v-1zm1 0h1v-1h1v-1h-2v1zm-7-3v-2h1v-1h-2v1h-1v1h-2v1h3zm-4 0h-2 2zm-2 0v1zm4-2v-1 1zm4 0v-1 1zm-7-1v-1h1v-1h-1v-1h-1v-1h-2v3h1v-1h1v1h-1v1h-1v-1h-2v1h2v2h1v-2h1zm-4 0v2-1zm0-7v-1h-1v1zm-3 0v1h1v-1zm1 1v1h1v-1zm-6-1v1-1zm0 4v1h1v-1zm23 15v3-2h1v-1h-1zm-2 5v1h1v-1zm0 1h-2v1h2zm-2 1h-1v1h2v-1h-1zm-1 1h-1v-1h1-1v-1h-2v2h1v1h2zm-2 1h-1v3-1h1v1h1v-2h2-3zm0 3h-1v1h1zm0 1v1h2v-1h-1zm-1 0v1zm0 1h-4v1h1v1h-1v1h1v3h1v-1h2v-1h1v2h3v-1h-2v-1h-1v-3h2v-1h-3zm1 6h-3v1h2v1h1v-1zm-5-3v1zm0 0v-1h-1v1zm4-8v-1 1zm0-1v-1h-2v-1l-1 1v2h2v-1zm-3-2h-1v1zm2-1h-1v1h1zm-1 0v-1h-1v1zm-4 0v1h1v-1zm2 8v1h1v-1zm2 9h1-1zm4 0h1v-1h-1zm2-4v-1 1zm0-1v-1h-2v1h1zm2-8h1v-1h-1zm2 7v1h1v-1zm1 1v1h1v-1zm1 0h1v1h2v-1h-1v-1h-2zm-2 2v-1zm5 0h1v-1h-1zm2 0v-1zm0-1h1-1zm0 0v-1 1zm0-1h1v1h2v-2h-2v-1h-3v1h2zm0 4h3v-1h-3zm3-1h1v-1h-1zm1 0v1h-1v1h1v2h1v-2h-1 2v-1h-1v-1h-1zm-2 2v1h1v-1zm0 1h-1v1h1zm0 1v1h1v-1zm1 1v1h1v-1zm1-11h1v-2h-1v1zm1-4v-1h-1v1zm-1-5v-1h-1v-1h-1v2h1zm0-1h2v-1h-2zm2-2h-1v1h1zm0-18h-1 1zm-1 0h-3v2h2v-1h1zm-7-5v-1h-1v1zm-5-1v-1 1zm-12 1v1-1zm-3-2v-1 1zm-9-1h-1zm-1 0h-2v3h1v-2h1zm-6 5v1h1v-1zm8 33h-1v1h1v-1zm-1 1h-2v1h2zm-2 1h-1v1h1zm-1 1v1zm4-6v-1h-3v1h-1v2h2v-2h1zm-4 0v-1h2v-1h-2v1h-2 1v1h1zm-4-3v1h1v-1zm0 1h-1v1h2-1zm4 5h2-1zm7 6v1h-1v1h-3v1h4v-1h1v-2zm1 2v1h-1v1h1v1h2v-1h-1v-2h-1zm2 3h1zm0 0h-1v1h1zm-2 0v1zm-1-1h-2v2h1v-1h1zm-1 2v1h1v-1zm-1 0h-1v1h1zm-1 1h-1v1h1zm0-1v-1 1zm-1-3h-1v1h1zm0 1v1h1v-1zm0 12h1v-1h-1zm1 0v1h-1v1h-1v1h2v-3zm-2 2v-1h-1v1zm-1-1h-1zm-1 0v1zm0 1h-1v1h1zm0-1v-1h-1v1zm-7-5h1v-1h-1zm29 7h1v1-2h-1zm1 1h1zm0 0v1zm1-3h1v-1h-1zm1 0h1zm3-3v-1h-1v1zm0-1h1-1zm0 0v-1h-1v1zm3 4h1v-1h1v-1h-2v1zm2-2h1v2h-2v1h1v1h-1v1h2v-3h1-1v-1h1v-1h1v-1h-1v-1h-1v1h-1zm3 0v1h-1v1h3-1v-2zm-4 5h-2 2zm-2 0v1zm0 1h-1v1h1zm0-1h-1zm2-1v-1h-1v1zm14-13v1h2v-1h-1v-1h2-3v-2h-1v2h-1 2zm2 1v2h1v-2zm13-15v-1zm-7-5v-1h-1v1zm-1 0v1zm5-1h1v-1h-1zm1 0h-1v1h1v1h1v-2zm1 2v1h1v-1zm-2-5v1h3v-1h-2zm-9 3h-4v1h1v-1 1h3v-1zm-3 1v1zm-1 0h-2v1h2zm6-5h1v-1h-1zm12-3v-1h-2v1h1zm-6-11h1v-1h-1zm6 3h1v-1h-1zm1 0zm0 0v1h1v-1zm-6-7h1v-1h-1zm4 0v-1h-1v1zm-2-6h1v-1h-1zm0-2v-1h-2v2h1v-1zm-7-6v1-1zm-7 6v-1h-1v1zm-1 0h-2v-1h-1v1h3zm0-1v-1h-1v1zm-1-1V9h-1v1zm-13-1V8h-1v1zm-1-1h-1v1h1zm-1 0V7h-1v1zm-1 0h-1v1h1zm-1 0V7v1zm0 0h-1v1h1zm-19-2v1h1V6zm30-3v1h1V3zm1 1v1h1V4zm1 0h2V3h-2zm9-1v2h1V4h1V3h-1zm13 0v6h6V3h-5zm-70 1h4v4h-4V5zm41 0h1v1h-1zm4 0v1h1V4zm26 0h4v4h-4V5zm-70 1v2h2V5h-2zm71 0v2h2V5h-2zm-18 1v1-1zm-29 1h2v2h-2V8zm22 0h3v2h-3V8zm-31 1v1h1V8zm10 0v1h1V8zm22 0v1h1V8zm6 0v1h1V8zm17 1v1h1V9zm1 0v1h1V9zm2 0v4h1v-1h1v-2h-1V9zm0 4h-1v-1h-1v3h2v1h2v-2h-2zm-59-3h1v2h-4v-1h3zm10 0h1v1h-1zm47 1v1h1v-1zm-26 1v1h1v-1zm8 2v1zm3 0v1h1v-1zm6 0h1v1h1v1-1h1v1h-1v1-1h-2v-1zm-14 1h1v1h-1zm-40 1h1zm57 0h1v1h-1zm6 0v1-1zm0 1v1h1v-1zm-17 0h1v1h2v1h-1v1h1-3v-2zm-48 2h1v1h-1zm6 1h1zm57 1h1v1h-1zm-37 1v1h1v-1zm0 1h-2v1h2zm39-1v2h3v-1h-1v-1h-1zm3 2v1h1v-1zm-45-1v1h1v-1zm-25 1h1zm11 0zm7 1v1h1v-1h-1zm-12 2h1v1h-1zm9 0h1v1h-1zm27 0h3v1h-3zm16 0h1v1h-1zm-7 1v1h1v-1zm-53 1h2v2h-2v-1zm22 0h2v2h-2v-1zm22 0h3v2h-3v-1zm21 0h1v1h-1zm1 0h3v2h-3v-1zm-65 1v1h1v-1zm22 0v1h1v-1zm22 0v1h1v-1zm22 0v1h1v-1zm-5 1v1h1v-1zm9 2v1h2v-1h-1zm-75 1v1h1v-1zm26 2v1h1v-1zm32 0v1h1v-1zm-47 1v1h2v-1h-1zm2 1v1h1v-1zm18-1v1h1v-1zm-5 1v1h1v-1zm14 1h1zm-30 1h1v1h-1zm6 0h1v2h-1v2h1v1h-1v-1h-1v1h-1v1h-1v-3h1v-1h2-1v-1h1zm-2 3v1h1v-1zm26-3v1h1v-1zm35 1v1h2v-1h-1zm0 1v1h2v-1h-1zm-73 1v1zm45 0v1-1zm27 1v1h3v-1h-2zm-11 1v1h2v-1h-1zm12 1v2h1v-2h1-1zm-49 2v1h1v-1zm-22 3h2v3h-2v-2zm22 0h2v3h-2v-2zm22 0h3v3h-3v-2zm22 0h3v3h-3v-2zm-65 1v1h1v-1zm22 0v1h1v-1zm22 0v1h1v-1zm22 0v1h1v-1zm-58 2zm-8 0h1v1h-1zm61 0v1h1v-1zm-56 2h1v1h-1zm41 0v1zm-50 4v1h1v-1zm1 1h-2v2h1v-1h1v2h1v-1h-1v-1h1v-1h1-2zm1 1v1h1v-1zm73-2v1h1v-1zm-40 1v1-1zm12 0h1v1h-1zm-40 4h1v3-1h-1v1h-1v-1h1v-1zm43 0v2h1v-2h1v1h1v-1h1v2h-3v1h-1v-2zm-46 3v1h1v-1zm7 1h1zm58 0v1h1v1h-1v-1 1h-1v-1h1zm-3 4h1zm-41 0h2v3h-2v-2zm22 0h3v3h-3v-2zm22 0h3v3h-3v-2zm-70 1v6h6v-6h-5zm27 0v1h1v-1zm22 0v1h1v-1zm4 0v1h1v-1zm1 1v2h-1v2h1v-1h1v1-1h3v-2h-3v-1zm1 4h-1v1h1zm-2 0h-1v1h1zm18-5v1h1v-1zm-70 1h4v4h-4v-3zm20 0v1-1zm-19 1v2h2v-2h-2zm74 0v3h-1v1h2v-4zm-63 1h1v1h-1zm11 0v1h1v1h-1v1h2v-3h-1zm-1 1v1h1v-1zm0 1h-1v1h1zm34 0v1h1v-1z" />
        </g>
        <g stroke="none">
            <path fill="#fff" d="M3 132h75v76H3z" />
            <path fill="#000" d="M4 133v6h6v-6H4zm8 0v1h-2v1h2v1h2-1v-2h1v2h1v-2h1v1h1v-2h-5zm2 3v1h1v1h1v-1h1v2h1v-1h1v-1h1v1h1v1h1v-1h1v2h-1v1h1v1h-1v-1h-1v-1h-1v2h1v1h-2v-3h1v-2h-1v1h-1v1h-1v-2h-1v1h-1v-1h-1v2h2v1h1v2-2h1v2h-1v1-1h-2v1h1v1h1v1h1v2h1v-3h1v-1h-1v-1h4-1v1h-1v1h1v1h-1v2h2v-1h3v1h-2v2h1v-1h1v1h1v1h-1v1h3v-1h1v-1h-2 1v-1h-1v-1h1v-1h-1v-1h1v-1h-2v-2h-1v1h-1v1h1v1h-1v-1h-1v1h-1v-1h1v-2h3v-1h1v1h1v-2h1v2h-1v1h1v3h1v-1h3v-1h-3v-4h2v-1h-1v-3h1v-1h-3v-1h-1v1h-5v1h1v1h1v1h1v-2h1v3h-2v1h-2v1-6h-1v1h-2v-1h-7zm6 0h4v-1h1v-1h1v-1h-2v1h-3v1h-1v1zm1-2v-1h-1v1h1zm5 0v1h1v1h1v-3h-1v1h-1zm-2 2zm0 2v2h1v-2h-1zm6-3h1v-2h-1v2zm1 0v1h3v-1h1v-2h-1v1h-2v1h-1zm3 1v1h1v-1h1v1h-1v2h1v-1h1v-3h-1v1h-2zm3-1v-1 1zm0-1v-1h-1v1h1zm0 0h1v1h1v-1h2v-1h-4v1zm1 1h-1v1h1v-1zm-1 1v2h1v-2h-1zm1 2v1h-1v1h2v-2h-1zm1 2v2h-1v1h1v1h-2v1h1v2h1v-2h1v2h1v-2h2v-1h-1v-1h-2v-1h1v-1h-1v-1h-1zm1 0h1v-4h3v-2h-1v1h-2v1h-2v1h1v3zm4-5h6v-1h-3v-1h-1v1h-1v-1h-1v2zm6 0v1h-1v3h-1v-2h-1v-1h-1v2h1v2h-1v-2h-1v2h-1v1h4v-1h1v1h4v-1h1v1h-1v1h1v1h4v-1h-1v-2h-1v2h-1v-5h-1v2h-1v-2h1v-1h-1 1v-1h-3v-1h-1v1zm4 0h1v1h1v-1h1v-2h-2v1h-1v1zm0-1v-1h-2v1h2zm2 2v1h1v-1 3h1v-1h1v-1h1v-1h-2v-1h3v-1h-3v-1h-1v3h-1zm5-2h1v1h-1v1h2v-3h-2v1zm1 2v1h2v2h1v-2h2v1h1v-1h1v-1h-4 1v-1h-1v-1h1v-1h-2v3h-2zm5 0h2v-1h1v-1h-1v-1h-2v1h1v1h-1v1zm3-2v-1 1zm-1 2h1-1zm0 1v1h1v-1h-1zm1 1v3h-1v1h-2v1h3v-2h1v-1h-1v-2zm0 4v1h1-1v2-1h-1v1h-2v-1h-1v2h2v1h2v1h1v1h-1v-1h-2v1h-1v-1h-2v1h1v1h3v-1h1v1h1-3v2h-1v-2h-1v1h-2v-3h-1v3h-1v1h1v3h-1v1h2v-4 1h1v-1h1v1h1v1h-1v2h1v-1h1v-2h1v-1h1v1h-1v3h-1 2v-2h1v-1h1v-1h-1v-1h2v-2h-1v-1h1v-1h-2v-1h3v-3h-1v2h-1v-2h1v-1h-3zm3 0h1v1h1v-3h-1v1h-1v1zm0-1v-1h-1v1h1zm0 7v1h1v1h1v-1h2v-1h-4zm4 1v1-1zm-5 4v1h-1v1h2v-2h-1zm1 2v1h1v-1h-1zm1 0h3v-5h-1v4h-2v1zm-1 1h-1v1h-5v1h1v2h-1v1h1v1h1v1h-1 2v-1h4v-3h1v-1h-1v-1h-1v-1zm1 6v1h3v3h-1v-1h-2v2h3v-4h-1v-1h1v-4h-1v3h-1v1h-1zm3-4v-2h-2 1v1h1v1zm-9 5h-1v1h1v-1zm-1 1h-1v1h1v-1zm-1 0v-1h-2 1v1h1zm-1 0h-1v1h1v-1zm-1 1v-2h-4v-1h2v-1h-2v-2h-2v-1h2v-2h-1v1h-1v-1h-3v-1h-1v-1h-2v-1h-3v1h2v1h1v1h3v1h1v2h-2v1h5v1h-1v1h1v1h-1v-1h-1v1-1h-1v1h1v1-1h1v2h1v-1h1v1h1v1h1v1h1v-1h1v-1zm0 1v3h-1v1h1v-1h1v-1h1v-1h-1v-1h-1zm2 1h1v-1h-1v1zm1 0v1h2v-3h-1v2h-1zm2-2h1v-1h-1v1zm0 3v2h-2v-2h-1v2h-2 1v1h1v-1h1v1h1v-1h2v-2h-1zm1 1h2v1h3v-1h1v-1h-2v1h-1v-6h-3v1h1v1h-1v4zm6 0v2h-2v1h-1v1h2v-1h2v-3h-1zm-3 4h-1v-1h-1v-1h1v1h1v-2h-3v2h-1v1h1v1h1v1h1v-1h1v-1zm0 1v1h1v-1h-1zm0 1h-1v2h1v-2zm-1 2h-2v1h-1v1h-1v1h-1v2h1v-1h1v-1h1v1h-1v1h1v1h-2v1h2v-1h6v-1h-2v-1h1v-1h-1v-1h3v1h-1v2h1v-9h-1v3h-2v1h3v1h-5v-1zm5 5v1-1zm-2 1v1h1v-1h-1zm-1 0h-1v1h1v-1zm-1 1h-2v1h-1v1h2v1h1v-1h2v-1h-2v-1zm2 2v1h1v-1h-1zm1 1v1h1v2-3h-1zm-3 0v2h-1v-1h-1v-1h-1v-1h-2v1h-4v-1h-1v1h1v1h1v1h1v-1h3v2h1v-1 1h4v-3h-1zm0 3v1h2v-1h-2zm2 0h1-1zm1 0v1h1v-1h-1zm-3 1h-1v1h-2v1h-2v1h-1v1h3v-1 1h1v2h3v-2h-1v1h-1v-2h-1v-1h1v1h1v-1h2v-1h-2v-1zm0 6v1h1v-1h-1zm-1 0h-1v1h1v-1zm-1 1h-1v-1h-1v-1h-3v1h2v1h2v1h-2v2h-1v-1h-2v1h1v1h1v1h2v-2h1v2h-1v1h1v-1 1h5v-1h-1 1v-1h-1v-1h1v-2h-4v-1zm4 5h1-1zm-5 1v1-1zm-1 0h-1v1h1v-1zm-1 1h-1v1h-1v1h3v-1h-1v-1zm-1 0v-1h-2v-1h-1v2h3zm-3-2h1v-2h-1v-4h-2v1h-1v1h2v2h-1v2h2zm-1 0h-1v1h1v-1zm-1 0h-2 2zm-2 0v-1h-1v-1h-2v-2h-1v3h2v1h-1v1h1v-1h2zm-3 1v1-1zm0 1v1h1v1h1v-1h1v-1h-3zm0 0h-2v-1h-1v1h-2v2h1v-1h3v1h1v-2zm-5 0v-1h-2v-1h3v-2h1v2h2v-1h-1v-3h-1v1h-1v-1h-3v-1 1h-1v1h-1v1h-1v2h1v2h1v-1h1v2h1v-1h1zm-2 0h-1v1h1v-1zm-1 1h-2v-1h-1v1h-1v-1h1v-1h-1v-1h1v1h1v-1h-3v-1h-1v1h1v4h5v-1zm-5-1v-1h-2v2h1v-1h1zm-2 1h-1v-2h1v-1h-3v1h-2v-2h-1v1h-1v-1h-2v-1h-1v-1h1v-1h1v-2h-1v1h-1v1h-2v-1h-2v-1h1-1v-1h-1v-1h-3v1h-2v-1h2v-1h-2v-1h2v-1h1v-1h-1v-1 1h-1v1h-1v-1h-1v-1h-2v1h1v1h-1v1h2v1h-1v1h1v2h-2v2h1v-1h1v1h-1v1h1v1h1v2h-1 2v-1h1v-2h-1v-1h1v-1h1v-1h-1v1h-1v-1h2v-1h1v1h-1 2v1h-2v1h1v1h-1v1h2v-1h1v1h-1v1h-2v1h1v1h1v-1h2v1h1v1h-2v1h1v1h1v-1h2v-1h-2v-1h2v-1h2v3h-1v1h3v-1h-1v-1h2v1h1v-1h2v1h-1v1h3v-1zm-10-2v1h1v-1h-1zm-6 0h-1v-1h-1v4-1h1v-1h1v-1zm-3-1v1h1v-1h-1zm0 1h-2v-1h-1v3h1v-1h1v1h-1v1h2v-3zm-3-1h-1 1zm0 0h1v-1h-1v1zm-1-6h1v-1h-1v-2h-1v3h-1 2zm-2 0v-1 1zm0 0h-2v1h-1v1h1v1h-1v1h-1v1h1v1h2v-1h-1v-1h1v-2h1v-2zm-1 4v1h1v-1h-1zm1 1v1h1v-2h-1v1zm-3 1h-1v1h-2v-1h1v-1h-1v1h-1v4h1v-1h1v1h1v-2h2v-1h-1v-1zm1 2v2h1v-1h2v-1h-1v-1h1v-1h-2v2h-1zm-4-3v-2h-1v2h1zm-1-2v-2 1H9v1h1zm-1-1v-1H8v1h1zm-1-1v-1H7v1h1zm-1 0H6v1h1v-1zm-1 0v-1H4h4v-1h1v-1H8v-1H7v2H4v-2H3v4h1v1h1v-1h1zm-2 1H3v1h1v-1zm0-5h1v-1h1v1h1v-1h1v1h1v-1h1v-1H7v-1h3v-1H7h3v-1H8v-1h2v1h1v1h1v-2h-1v-1h-1v-1 1H9v-1h1v-1H9v-1h1v-1H9h2v-2h1v-1h1v-1h-1v-1h1v1h1v-1h1v1h-1v3h2v-2h1v-1h-1v-2h-5v-1h-1v1H9v-1h1v-1H8v2H7v3H6v1H5v-1H3v1h1v1h2v1h1v1h1v1H7v1H6v1h1v1H4v1h2v1H3v2h1v-1h1v1H4v2zm2-8v-1H5v1h1zm-1 0H4v1h1v-1zm-1 0v-1H3v1h1zm0-1h1v-1H4v1zm0-1v-2H3v2h1zm1-4h1v-3H5v3zm1-3h1-1zm0 0v-1H5v1h1zm-1-1v-4H4v1H3v4h1v-1h1zm-1-4v-1H3v1h1zm1 0h1v-1H5v1zm1-1h1v-1H6v1zm1 0v1h1v-1H7zm1 1v1h1v-1H8zm1 0h1v-1H9v1zm1-1v2h1v1h1v3h2v-1h-1v-2h1v1h2v-1h-1v-1h-3v-1h-1v-1h1v1h1v-2h-3v1zm0-1H8h2zm-2 0v-2H7v-1H6v2h1v1h1zm-2-1H4v1h2v-1zm-2 0v-3H3v3h1zm0-3h2v-1H5v-1H3v1h1v1zm9 4h1v-1h1v-1h-2v-2h-1v2h-1v-2h1v-3h2v-1h2v-1h1v2h1v-2h-1v-1h-2v-1h-1v-3h1v1h1v-1h1v-1h-1v-1h-1v-1h-1v-1h-1v2h-1v1h3v1h-2v2h-2v-1h1v-1h-2v1H8v-1h2-1v-1H7v1H6v-1h1v-1h1v-2h1v-1h1v3h2v-1h-1v-1h2v-2h-2v-1h-1v-2H9v-1H8v3h1v-1h1v1H9v1h2v1h-1v-1H8v1H7v1H5v1h1v1H5v1H4v1h3v2H5v-1H4v1H3v1h2v4H3h3v1h3v-1H7v-1H6v-1h1v1h3v1H9h1v1H9v1h1v-1h1v1h-1v1H9v1h1v2h3v1zm-9-13v-1H3v1h1zm1-3v-1H3v1h2zm0-2v-1H3v1h2zm0-1h2v-1H5v1zm2-1h1v-1H7v-1H6v-1h1v-1h1v-3H4v1H3v1h1v1H3v3h1v-1h1v2h2zm2-4h1v-1H9v1zm1 1h1v-2h1v-1h-2v3zm2-3h1v-1h-1v1zm0-1h-1 1zm1 0h1v-1h-1v1zm0-1v-2h-1v-1h-1v1H9v1h1v1h1v-1h1v1h1zm-3 0H9v1h1v-1zm0 1H9v1h1v-1zm-1-1v-1H8v-1H3v3h2v-1H4v-1h2v1h1v1h1v-1h1zm2-3v-2h-1v2h1zm0-2h1v-1h-1v1zm0-1h-1 1zm1 1v2h1v-2h-1zm1 7v1h2v-1h-2zm2 1v1h-1v1h2v2h-1v2h-1v1h1v1h1v-2h1v-5h-1v-1h-1zm1 8v1h1v-1h-1zm-5-6v2h2v-2h-2zm2 2v1h1v-1h-1zm-3 3H9v1h1v-1zm-1 3h1v-1H9v1zm1 0v1-1zm6 2v2h1v-2h-1zm-2 6h-1v2h3v-1h2v-1h-4zm4 1v1h-1v1h1v1h-1v1h3v1h1v1h1v-1h1v-1h1v-3h-1v1h-1v2h-1v-1h-2v-3h-1zm1 0h1v1h3v-1h-1v-1h-1v-1h-1v-1h1v-1h-1v-1h-1v5zm2-3v1h2v-2h-1v1h-1zm2-1h1v1h1v-1h1v-1h1v1h1v2h1v1h1-2v1h-2v2h1v-1h2v-1h1v1h-1v1h1v1h-1v3h1v1h1v-1h-1v-2h1v-2h-1v-1h1v1h1v-2h-2v-1h1-1v-1h3v-1h-1v-4h-1v-1h-1v1-1h1v-1h-1v-1h2v-2h-1v1h-1v-1h-1v1h1v1h-1v-1h-2v1h1v1h-3v1h4v1h-1v1h-4v1-3h-2 1v1h-2v2h1v-1h1v2zm-2-3v-1h-1v1h1zm-1 0h-2v1h2v-1zm-2 0v-1h-1v1h1zm0-1h1v-2h-1v-1h-1v2h1v1zm0-3h1v-1h-1v1zm1-1h1v-1h-1v1zm1 0v1h1v3h1v-1h3v-1h-2v-1h-1v-2h1v1h1v-2h-3v2h-1zm3-2h1v-1h-1v1zm5 7v-1h-1v1h1zm-3-1h-1v1h1v-1zm5-4h1v-1h-1v1zm1-1h1v-1h4v-1h-3v-1h-1v2h-1v1zm0-1v-2h-1v2h1zm-1-2v-1 1zm0 0h-1v1h1v-1zm1 0h1v-1h-1v1zm2 0h3v-1h-3v1zm3-1h1v-3h-1v3zm0-3v-1h1-1v-1h-1v-1h1v-1h-1v-1h-1v-2h-1v3h1v2h-2v1h2v1h2zm0-3v1h1v-1h-1zm1 1v1-1zm0 0h1v-1h-1v1zm0 5v3h2v2h-2v2h2v-1h1v-1h2v-2h-1v1h-1v-1h1-2v-1h2v-1h-1v-1h-1v1h-1v-1h-1zm4 1h1v-1h-1v1zm1-1h1v-1h-1v1zm-1 2v1h2v-1h-2zm2 1v1h1v-1h-1zm1 0v2h3v-1h-1v-1h-2zm0 2h-2v1h2v1h-1v1h1v1h3v-1h1v1h1v-2h-2v-1h-2v1h-1v-2zm4 4h-1 1zm0 0v1h1v-1h-1zm1 1v1h-1v1h-1v2h-4v1h1v1h1v-1h1v1h1v-1h1v1h2v-1h2v1h2v1h1v-1h-1v-2h-1v-2h1v-3h-1v1h-4zm4 6h-1v1h-1v1h1v1h1v3h-1v1h1v1h1v1h-3v1h1v2h3v-1h1v-1h1v-2h-1v1h-1v-2h1-2v-3h1v-1h2v-2h-1v1h-3v-2zm4 3v1-1zm0 0h1v-1h-1v1zm0 1v1h1v1h-1v3h2v1h-1v1h1v1h-1v1h1v1h-1v-1h-1v1h2v1h-1v1h-1v2h1v1h-1v3h1v-2h4v-2h-1v1h-1v-1h-1v-2h1v-2h2v-1h-1v1h-1v-1h1v-1h-1v-1h2v1h1v2h-1v1h1v2h1v2-1h-1v2h2v-1h1v-2h-1v-2h1v-1h-2v-2h1v-1h1v-1h-1v-2h-1v-1h-2v1h1v2h1v1h-1v-1h-1v-2h-1v2h-1v-2h-2v-1h1v-2h3v-1h-2v-1h-1v1h-2zm2 3h1-1zm1 0v1h1v-1h-1zm6 3h1v-2h-1v2zm1 0v2h2v-1h-1v-1h-1zm2 2v1h-1v1h2v-1h1v-1h-2zm-1 2h-1v1h1v-1zm-1 1h-1v2h1v-2zm0-1h-1 1zm0-2h-1v1h1v-1zm-1 7v1h-2v1h3v-2h-1zm1 2v1h1v-1h-1zm0 1h-1v1h1v-1zm-5-7h-1v1h1v-1zm-2 3h1v-1h-1v1zm2 2v2h2v-1h-1v-1h-1zm-1 0h-1v1h1v-1zm-1 1h-1v1h-1v2h1v1h-2v-3h-1v2h-1v-2h-2v2h-1v-1h-1v2h3v1h1v-1h2v1h1v1h1v-1h1v-1h2v-2h-1v1h-1v-1h1v-1h-1v-1zm0 5v1h1v-1h-1zm1 1h1-1zm1 0v1h1v-1h-1zm1 1v1h1v2-1h1v-1h-1v-1h-1zm1 0h1v-1h-1v1zm0-1h1v-1h-1v-1h-1v2h1zm1 0h1v1h1v1h-1v2h1v-1h1v-2h2v1-1h2v-1h-5 1v-1h-2v1h-1zm1 4h-1v1h-2v1h1v1-1h2v-2zm-2 3v1h1v1h1v-1h1v-1h-3zm3 1v1h1v-1h-1zm-4-3v-1h-1v1h1zm-1 0h-1v2h1v-2zm-1 0v-1h-2v1h-1v-1h-1v2h1v1h-2v1h1v1h1v-1h1v-1h1v-2h1zm-2 3v1h1v-1h-1zm1 0h1v-1h-1v1zm0 1v1h1v-1h-1zm-1 0h-1v1h1v-1zm-2-3h-1v1h1v-1zm9-4v-1h-1v1h1zm-4-1h-1v-1h-2v1h-1v1h-1v1h2v-1h1v1h2v-2zm-5 1v-1 1zm0-1h1v-1h-1v1zm0-2h-1v1h1v-1zm-1 1h-6v2h1v-1h1v1h-1v2h1v2h2v-1h-1v-1h2v-3h1v-1zm-1 4v1h1v-1h-1zm-3 2h-2v1h2v-1zm0 1v1h1v1h1v-1h1v-1h-3zm-1 0h-1v1h1v-1zm-1 0h-1v-1h-1v2h1v-1h1zm0-1v-1 1zm0-1v-3h-1v1h-1v1h-1v-1h1v-1h-1v-2h-2v1h1v1h-1v-1h-1v2h1v1h1v2h1v-1h3zm-4 1h-1v1h-1 3-1v-1zm-1 0v-2h-2v1h-1v-1h1v-1h-1v-3h1-1v-1h1v1h3v-1h-2v-2h-2v1h-1v2h-5v-1h-1v-1h-1v6h-1v1h-1v1h2v-1h1v1h-1v1h2v-1h1v-4h-1v-1h1v1h1v-1h2v-1h1v1h-1v1h-1v2h1v1h-1v2h-3v1h1v1h1v-1h1v3h1v1h3v-1h-2v-1h1v-1h-1v-1h1v-1h1-1v-1h1v1h1v-2 1h1zm-2 1v1h-1v1h2v-2h-1zm-6 0v-1 1zm2-2v-1h-2v1h2zm-4-7h2v2-2h3v-1h-3v-4h-4v1h-1v1h2v1h1v2zm-3-4v-1h-1 1v-1h1v-2h-1v-1h4v-1h-1v-1h-3v1h-1v-1h-4v1h1v2h-1v2h1v1h1v1h3zm-3 0h-1v1h-1v1h1v1h-1v-1h-1v2h1v1h-1v1h1v1h-1v2h-2v1h3v-1h1v-1h1v1h1v1h1v-1h2v-1h-3v-1h-2v-1h2v1h3v-1h-1 1v-2h-1v1h-1v1h-1v-2h-1v-2h2v-1h-2v-1zm1 4v-1 1zm0 0v1h1v-1h-1zm1 0h1v-1h-1v1zm-1 6h-1v1h-1v1h2v-2zm0 1v1h1v-1h-1zm0 1v1-1zm-3-11v-1h-1v-1h-3v-3h-1v-1h1v-1h-5v1h-1v1h1v3h1v-3h1v-1h1v3h1v1h-1 1v1h-1v1h-1v1h1v1h-2v-2h-1v1h-2v-1h-1v-1h-1v-1h-2v1h1v2h2v1h-3v1h1v1h1v-1h3v-1h1v1h4v-1h1v1h-1v1h-1v1h1v1h1v-1h1v-4h-1v-1h1v-1h1v1h2zm-2 0h-1v1h1v-1zm-1 5h1-1zm-6-2h-1v1h1v-1zm-4 1v1h2v-1h-2zm2 1h3-3zm-2 0h-3v2h1v1h1v-1h1v1h2v-1h-1v-2h-1zm2 2h1v-1h-1v1zm1 0v2-2zm-3 1h-1v1h1v-1zm-2 0h-1v1H9v1h1v2h1v-2h1v-2zm0 2v2h-1 2v-2h-1zm1 2v1h1v-1h-1zm0 1h-1v1h-1v1h2v-2zm-3-2H9v1h1v-1zm-1 1H8h1zm0 0v1h1v-1H9zm2-7h-1 1zm1-3v-3h-1v3h1zm1-4v-2h-1v2h1zm2 1h1v-1h-1v1zm1 0v1h1v-1h-1zm1-5v-1h1v-1h5-3v-1h3v1h1v-2h-1v-2h1v-1h-1v-1h1v-1h-2v2h-1v1h-1v1h1v1h-2v1h-2v3zm0-3v-3h1v-1h-1v3h-1v1h1zm0-4v-1h-1v1h1zm-1 0h-1v1h1v-1zm0-1v-1h-1v1h1zm0-1h1v-1h-1v1zm1-1v-1 1zm2 6v-1h-1v1h1zm1-2v-1h1v-2h-1v1h-1v2h1zm-1-2v-2h-1v1h-1v1h2zm5 0v1-1zm0 0h2v3h1v-2h1v-1h1v-1h-5v1zm2 3h-1v1h1v-1zm-2-2v1h1v-1h-1zm0 3v-1 1zm0 2h-1v1h1v1h1v-1h-1v-1h1-1zm1 0v1h1v-1h-1zm-1 2h-1v1h1v-1zm0 4v-2 2zm0-2h2v-1h-2v1zm2-1h1v-1h-1v1zm0 3h2-1v-1h-1v1zm4-6v-2 1h-1v1h1zm0-2v-1 1h1v-2h-1v-1h-1v3h1zm1-2h2v-2h-2v2zm2 0v2h1v-2h-1zm1 0h2v1h-1v1h-1v2h3v-1h1v-1h-1v-3h-1v-1h-1v1h-1v1zm1-2v-1h1v1h1v-1 1h1v-1h1-1v-1h-1v1-2h-2v1h1v1h-1v-1h-1v2h1zm-1-2v-1h1v-1h-3v1h1v1h1zm1-2h1v-1h1v-1h-1v-1h-3v1h2v2zm2 1h1v-1h-1v1zm2 2h1-1v1h2v1h1v-1h2v-1h-3v-1h1v-1h-2v-1h-1v3zm1-3h1v-1h1v-1h-1v-1h2v-1h-2 1v-2h-3v1h-2v1h3-1v1h1v1h-2v1h2v1zm-3-4h-1v-3h-3v1h1v1h1v1h-3 5zm0 0v1h1v-1h-1zm-1-3h1v-2h-1v-1h-1v-1h2v-1h-1v-1h-3v1h2v1h-1v2h1v1h1v1zm1-5v-1 1zm0 3v-2 2zm0 4v-1 1zm0-1h2v-1h2v-1h2v-1h-1v-1h-1v1h-1v-1h1v-2h-2v3h-1v1h-1v2zm4-6h1v-2h-1v2zm1 2h1v1h1v1h1v-1h1v1h1v-1h1v-1h-1v-1h-2v1h-1v-1h-2v1zm2-1zm0 3v1-1zm-2 2h1v-1h-1v1zm0 7h1v-1h-1v1zm1-1h1v-1h-1v1zm1 0v1h-1v1h1v1h3v-1h-1v-1h2v-1h1v-1h1v-2h-2v2h-1v1h-1v-1h1v-1h-1v-1h1v-1h-3v2h1v2h-1zm0-4zm6 3v1h1v-2h-1v1zm0 1h-1v1h-1v2h1v-1h1v-2zm-2 3h-1 1zm-1 0h-2v1h-1v1h2v1h1v-1h1v1h1v-1h1v-1h-3v-1zm1 3h-1v1h1v-1zm0 1v3h2-1v-1h1v-1h-1v-1h-1zm2 2v1h4-1v1h3v-1h1v-1h-1v1h-1v-1h-3v-1h-1v1h-1zm7 0v-1 1zm0 1v1-1zm-4 1h-1v-1h-1v1h-3v1h1v1h-1v1h1v1h-1v1h-1v1h3v-1h4v-2h1v-1h-1v-1h-1v-1zm2 2h1v-1h-1v1zm1 0v1h1v-1h-1zm1 1v1-1zm0 1h-1v1h-2v1h1v1h1v-1h1v-2zm-1 0v-1h-1v1h1zm-4 1h-1v1h1v-1zm-1 1h-1v1h1v-1zm-4-1v-1h1v-1h-1v-2h-1v-1h-2v1h1v2h1v1h-1v-1h-1v2h3zm-2 0h-2v1h1v2h1v1h1v2h1v-4h-2v-2zm-2 0h-5 3v1h1v-1h1zm-5 0v-1h-1v1h1zm0-1h1v-1h-1v1zm1-1h1v-1h1v-1h-2v2zm2-2h1v-1h-1v1zm0-1v-1h-4v2h1v-1h3zm1 0h2v-1h-2v1zm-1 2v1h-1v1h3v1h1v-3h-3zm5-2h1v-1h-1v1zm0-1h-1 1zm0 0h1v-3h-2v1h-1v1h2v1zm-4-5v1h1v-1h-1zm1 1v1h1v-1h-1zm0 1h-1v-1h-1v1h-1v1h-1v1h-1v1h3v-1h1v-1h1v-1zm0 1v1h1v-1h-1zm-4 0v-1h-1v1h1zm2-2v-1h-2v1h2zm-4-2v1-1zm0 1v1h1v-1h-1zm-6 3v2h1v-2h-1zm5 4v2h1v-2h-1zm-3 3v1h3v-1h-3zm4 2v1h1v-1h-1zm3 3h2v-2h-3v1h1v1zm3 3v1h1v-1h-1zm8-2h-1v1h1v-1zm-1 1h-2v1h2v-1zm7-20v-2h-2v1h1v1h1zm0 4v1-1zm-6-9v-1h-1v1h1zm-14-15v-1h-1v1h1zm-2 1v1h1v-1h-1zm1 1v1h-1v1h2v-2h-1zm-5 5h1v1h1v-1h-2zm-4 10v1h-2v1h2v1h1v-3h-1zm0 3h-3v1h3v-1zm-2-2v-1h-1v1h1zm1-3v-1h-2v1h2zm2-1h-1 1zm-1 0v-1h-1v1h1zm-3-2v1-1zm0 1v1h1v-1h-1zm0 0h-1v2h1v-2zm-9 6h1v-1h1v-1h-2v2zm-5 5H9v1h1v-1zm-2 0H7v1h1v-1zm-1 1H6v2h1v-2zm9 8v1h1v-1h-1zm-6 2v1-1zm9 8v-1h-1v1h1zm11 6h2v-1h-2v1zm4 1v1h1v2h1v-1h1v-2h-3zm3 2v1-1zm0 0h1v-1h-1v1zm10 0v-1h1v-1h-1v-1h-3v2h1v1h2zm9 2h-1v1h2v-1h-1zm-3 0v1h1v-1h-1zm16-31v-1h-1v1h1zm-5-4v-1h-1v1h1zm-7-6v-1 1zm-3-8h1v-1h2v1h-1v2h1v-2h1v-1h-1v-2h1v2h1v1h2v-1h1v-1h-2v-1h-1v-1h-3v2h-2v-1h-1v-1h2-2v-1h1v-1h-1v-1h1v-1h-1v-1h3v-1h-3v-1h-1v2h-1v1h1v3h-2v1h-1 1v1h1v-1h1v2h1v1h1v1zm-4-3v1-1zm0-2v-1h-1v-1h-1v-2h-1v-1h-1v2h1v2h1v1h2zm-2 0h-1v1h1v-1zm-1 0v-1h-1v1h1zm-1-1v-2h-2v2h2zm0-4v-2h-1v1h-2v-1h-1v1h1v1h1v-1 1h2zm1 0h1v-1h-1v1zm1 0v1h1v-1h-1zm1 3h1v1h1v-2h-1v-1 1h-1v1zm3-4v-1h-2v1h2zm-2 0h-1 1zm6 2v1h1v-1h-1zm1 1v2h2v-1h-1v-1h3v-1h-1v-2h2-5v3zm5-3h1v-1h-1v1zm1 0v1h-1v1h2v1h-3v1h3v1h1v-5h-1v1-1h-1zm1 0h1v-1h1v-1h-1v-1h-1v3zm0-3v-2h-1v1h-1v1h2zm-2-1v-1h-1v1h1zm-1 0h-1v-1h-1v2h1v1h1v-2zm-2 1h-1v2h1v-2zm6 0h2v-2h-1v1h-1v1zm2 0v1h1v-1h-1zm-10 7h-1v1h-1v1h2v-2zm0 2v1h2v-1h-2zm2 1h3-1v-1h-1v1h-1zm2-1h1v-1h-1v1zm-6-1v-1h-1v1h1zm0-1h1v-1h-1v1zm4 7h-1v2h1v-2zm3 7h2v-1h-2v1zm2 0v2-1h1v-1h-1zm1 0h1v-1h-1v1zm0-1v-1h-1v1h1zm-1-1v-1h-1v1h1zm0-1h1v-1h1v-1h-2v2zm-2 4v1h1v-1h-1zm4 1h1v-1h-1v1zm1-5h-1v1h1v-1zm5-2h-2 2zm-8-7v1h1v-1h-1zm1 1h1-1zm2-6h2v-1h-2v1zm2-6h-1v1h1v-1zm-14-2h-1 1zm-11 4v-2 1h-1v-1h1v-1h-1v-1h-1v4h1v1h1v-1zm-2 0h-1v1h1v-1zm2-2h1v-1h-1v1zm2-2h-2 2zm1 0h1-1zm-10 3v-1 1zm-9 4h-1 1zm-2 9h-1v1h1v-1zm-1 0v-1h-1v1h1zm1-2h-1 1zm-7-2v1h-1v1h2v-2h-1zm-2-15v2h1v-1h1v-1h-2zm54 0v6h6v-6h-6zm-67 1h5v4H4v-4zm68 0h5v4h-5v-4zm-67 1v2h3v-2H5zm68 0v2h3v-2h-3zm-22 1h1-1zm-22 1h2v3h-2v-3zm21 0h2v3h-2v-3zm-20 1v1-1zm20 0v1h1v-1h-1zm6 0v1h1v-1h-1zm20 2v1h1v-1h-1zm-29 2v1h1v-1h-1zm29 0v1h1-1v1h1v-2h-1zm-71 2h2v1H6v1H5v-2zm70 1v1h1v1h1v-2h-2zm-72 5h1-1zm45 1v1h1v-1h-1zm26 0v1h1v-1h-1zm-24 5h1-1zm12 0v1h2v-1h-2zm-5 1v2-2zm-49 1h2v3H8v-3zm21 0h2v3h-2v-3zm21 0h2v3h-2v-3zm11 0v1h1v-1h-1zm8 0h1v1h-1v-1zm1 0h3v3h-3v-3zm-64 1h1v1H6v-1zm3 0v1h1v-1H9zm2 0h1v1h2v1h-1v1h-1v-1h-1v-2zm19 0v1-1zm20 0v1h1v-1h-1zm21 0v1h1v-1h-1zm-23 1h1v1h-1v-1zm-45 1v1h1v-1H3zm59 3h1v1h-1v-1zm9 2h1v1h-1v-1zm-62 2v1h1v-1H9zm41 2h1-1zm3 3h1v1h-1v-1zm-26 2v1h1v-1h-1zm0 1h-1v1h1v-1zm-18 1h1v1H9v-1zm1 0h1v1h-1v-1zm54 0v2-2zm-61 1v1h1v-1H3zm5 1h2v3H8v-3zm21 0h2v3h-2v-3zm21 0h2v3h-2v-3zm20 0h3v3h-3v-3zm-61 1v1h1v-1H9zm21 0v1-1zm20 0v1h1v-1h-1zm21 0v1h1v-1h-1zm-54 3v1h1v-1h-1zm31 2v3h1v-1h1v-1h-1v-1h-1zm29 0v1-1zm-24 7h1v1h-1v-1zm-18 1h1v1h-1v-1zm42 0v1h-2v1h2v2h-1v2h1v-6zm-1 4v-1h-1v1h1zm-61-3v1h1v-1h-1zm0 1h-1v2h1v-2zm25 1h1v1h-1v-1zm-23 2v2h1v-2h-1zm12 2h2v3h-2v-3zm21 0h2v3h-2v-3zm20 0h3v3h-3v-3zm6 0v2h1v-2h-1zm-73 1v6h7v-6H3zm27 0v1-1zm20 0v1h1v-1h-1zm21 0v1h1v-1h-1zm-67 1h5v4H4v-4zm34 0v1h1v-1h-1zm-33 1v2h3v-2H5zm72 0v3h-2v1h2v-4zm-2 3v-1h-2v1h2zm-2 0h-1v1h1v-1zm-1 0v-1h-1v1h1zm-1 0h-1v1h1v-1zm-36-3h1v1h-1v-1zm28 2v2h1v-2h-1z" />
        </g>
        <g fill="#000" stroke="none" font-family="sans-serif" font-size="8">
            <g font-size="6"><text x="224" y="-77" transform="rotate(90 45 -41)" xml:space="default">↓ les instructions ↓</text><text x="148" y="174" transform="translate(4 -85)" xml:space="default">↑ le modèle ↑</text></g><text x="-61" y="247" text-anchor="middle" transform="rotate(-45 -105 -43)">
                <tspan x="-61" y="247" stroke-width=".1">Enveloppe C6</tspan>
                <tspan x="-61" y="257" font-size="6">
                    <tspan stroke-width=".1">114 x 162 mm</tspan>(A4 plié en 4)
                </tspan>
            </text>
            <g stroke-width=".1"><text x="-59" y="183" text-anchor="middle" transform="rotate(-45 -105 -43)">
                    <tspan x="-59" y="183">Enveloppe</tspan>
                    <tspan x="-59" y="193">&quot;mini&quot;</tspan>
                </text><text x="-91" y="274" font-size="6" transform="rotate(-45 -105 -43)" xml:space="default">
                    <tspan x="-91" y="274" font-weight="bold">Pochette papier à lettre</tspan>
                    <tspan x="-91" y="281">2 feuilles cartonnées : 18x21 cm</tspan>
                    <tspan x="-91" y="289">2 feuilles marbrées : 21x24 cm</tspan>
                    <tspan x="-91" y="296">1 bande milieu : 7x25 cm</tspan>
                    <tspan x="-91" y="304">4 angles : 2,5x5 cm</tspan>
                    <tspan x="-91" y="311">2 bandes marbrées avec</tspan>
                    <tspan x="-91" y="319">les chutes des feuilles</tspan>
                    <tspan x="-91" y="326">marbrées</tspan>
                </text><text x="-62" y="92" font-size="5" text-anchor="middle" transform="rotate(-45 -105 -43)" xml:space="default">
                    <tspan x="-62" y="92" font-weight="bold">Pour le cahier</tspan>
                    <tspan x="-62" y="98">4 angles : 2,5x5 cm</tspan>
                    <tspan x="-62" y="104">1 feuille marbrée : 20x26 cm</tspan>
                    <tspan x="-62" y="110">1 feuille cartonnée : 17x23 cm</tspan>
                    <tspan x="-62" y="123">couper 4 feuilles blanches A4 en 2 feuilles A5</tspan>
                    <tspan x="-62" y="129">puis plier en 2 et coudre au milieu</tspan>
                </text></g>
        </g>
        <path d="M0 0h210v297H0z" />
    </g>
</svg>